<?xml version="1.0" standalone="no"?>
<!DOCTYPE svg PUBLIC "-//W3C//DTD SVG 20010904//EN"
 "http://www.w3.org/TR/2001/REC-SVG-20010904/DTD/svg10.dtd">
<svg version="1.0" xmlns="http://www.w3.org/2000/svg"
 width="500.000000pt" height="500.000000pt" viewBox="0 0 500.000000 500.000000"
 preserveAspectRatio="xMidYMid meet">

<g transform="translate(0.000000,500.000000) scale(0.100000,-0.100000)"
fill="#000000" stroke="none">
<path d="M0 2500 l0 -2500 2500 0 2500 0 0 2500 0 2500 -2500 0 -2500 0 0
-2500z m889 825 c22 -22 26 -34 24 -79 -5 -140 -106 -364 -249 -552 l-64 -84
63 -28 c38 -18 78 -46 102 -73 l40 -44 110 30 110 29 36 61 c47 78 95 117 144
117 60 0 64 -15 17 -66 -84 -91 -142 -254 -143 -402 -1 -58 4 -90 16 -115 23
-46 55 -79 75 -79 9 0 26 10 37 23 41 44 57 90 61 177 l4 85 -46 89 c-25 48
-44 92 -41 97 12 19 88 29 226 29 l147 0 12 30 c10 23 19 30 40 30 53 0 55
-17 26 -163 -36 -184 -45 -251 -36 -261 12 -12 56 53 130 193 36 67 77 137 91
154 24 28 30 31 55 22 26 -9 29 -16 32 -59 2 -26 -4 -102 -12 -168 -18 -135
-20 -178 -8 -178 5 0 49 69 99 153 88 147 91 156 118 277 73 341 219 660 326
715 40 21 92 19 122 -5 90 -71 -1 -292 -261 -635 -69 -91 -78 -107 -93 -179
-10 -44 -23 -127 -29 -185 -13 -115 -10 -384 3 -398 17 -16 79 73 142 202 50
104 64 143 69 194 12 130 130 316 212 337 14 4 46 4 72 1 40 -4 53 -12 88 -51
48 -53 39 -57 124 67 53 76 63 83 94 71 27 -10 18 -48 -48 -212 -35 -86 -74
-197 -86 -247 -27 -105 -32 -196 -12 -203 44 -15 295 339 353 497 25 70 30 75
65 67 32 -8 31 -24 -6 -203 -34 -163 -38 -212 -16 -194 19 16 130 200 201 335
89 167 135 206 187 159 29 -26 22 -76 -48 -356 -37 -144 -69 -289 -72 -322 -5
-57 -4 -59 13 -45 44 36 219 326 230 380 18 88 97 195 171 230 61 30 129 24
180 -15 l36 -27 47 46 c49 48 96 62 108 30 3 -9 -15 -88 -40 -177 -58 -201
-61 -217 -50 -217 5 0 70 75 144 167 168 210 217 260 263 268 67 13 146 -35
146 -89 0 -67 -97 -188 -177 -222 -84 -36 -86 -37 -99 -88 -7 -27 -16 -92 -19
-145 -6 -77 -4 -99 7 -108 35 -29 125 71 306 340 69 103 131 187 137 187 6 0
16 -5 23 -12 15 -15 -15 -70 -148 -268 -177 -264 -233 -321 -313 -322 -56 -1
-102 24 -116 63 -14 40 -14 169 -1 239 6 29 8 55 7 57 -5 5 -199 -223 -213
-250 -7 -12 -35 -112 -64 -222 -60 -233 -97 -333 -148 -401 -50 -66 -95 -94
-147 -94 -89 0 -114 64 -75 191 39 129 99 232 229 393 61 76 71 95 91 168 11
46 39 141 61 212 22 70 38 131 35 133 -3 3 -45 -32 -93 -79 -49 -47 -102 -94
-120 -106 -33 -24 -100 -29 -133 -12 -16 9 -25 -1 -71 -83 -83 -147 -148 -244
-173 -260 -41 -27 -93 -25 -125 5 -23 20 -23 26 -18 112 6 93 36 218 101 424
59 187 56 184 -99 -93 -64 -115 -130 -223 -145 -239 -24 -25 -33 -28 -64 -22
-21 4 -44 18 -56 34 -22 27 -22 54 -4 157 4 22 -11 5 -59 -67 -92 -136 -117
-168 -161 -200 -71 -51 -150 -26 -188 59 -19 44 -20 52 -8 130 7 46 10 87 6
90 -3 3 -35 -26 -70 -64 -81 -88 -113 -103 -171 -81 l-43 15 -53 -110 c-29
-61 -66 -128 -82 -149 -58 -80 -141 -101 -197 -50 -28 25 -32 35 -41 122 -7
61 -8 135 -2 208 10 130 11 131 -68 -15 -69 -127 -104 -152 -168 -118 -41 21
-54 61 -50 160 2 47 1 84 -3 83 -4 -2 -40 -55 -80 -118 -73 -115 -73 -115
-116 -118 -34 -3 -47 2 -67 22 -21 21 -25 34 -25 84 0 60 27 207 54 295 l14
47 -129 0 c-98 0 -131 -3 -135 -13 -2 -7 11 -39 30 -71 63 -105 69 -227 15
-340 -30 -65 -69 -89 -135 -82 -136 12 -223 115 -224 261 0 62 17 159 35 206
6 15 -3 14 -80 -4 -69 -17 -84 -24 -79 -37 72 -173 78 -334 18 -500 -51 -145
-134 -249 -232 -293 -60 -26 -184 -35 -250 -16 -60 17 -128 83 -168 164 -27
55 -29 69 -29 170 0 120 8 144 81 225 l31 35 6 463 c4 296 10 469 17 482 13
25 56 26 68 3 15 -28 22 -108 23 -253 1 -168 9 -194 34 -125 124 335 234 531
325 578 45 23 96 16 129 -18z"/>
<path d="M743 3244 c-39 -41 -71 -92 -122 -197 -61 -124 -146 -339 -166 -420
-26 -102 133 113 254 344 88 168 136 329 99 329 -7 0 -36 -25 -65 -56z"/>
<path d="M2488 3229 c-22 -12 -99 -136 -134 -214 -14 -33 -39 -100 -55 -148
-49 -149 -38 -155 48 -24 78 118 139 241 159 319 16 63 11 83 -18 67z"/>
<path d="M4611 2584 c-36 -30 -118 -187 -101 -192 41 -14 160 129 160 190 0
35 -19 36 -59 2z"/>
<path d="M2641 2544 c-53 -44 -153 -279 -137 -320 13 -34 101 47 225 205 41
53 42 55 24 70 -11 9 -27 28 -36 44 -22 34 -37 34 -76 1z"/>
<path d="M430 2525 c-10 -28 -32 -226 -26 -233 2 -1 41 18 87 42 46 24 117 57
157 72 79 30 79 32 40 90 -36 52 -54 59 -155 59 l-93 0 -10 -30z"/>
<path d="M3965 2519 c-63 -58 -130 -199 -96 -199 13 0 114 85 164 138 39 39
39 40 23 71 -9 17 -23 31 -31 31 -9 0 -35 -18 -60 -41z"/>
<path d="M638 2366 c-85 -37 -156 -76 -205 -113 -32 -23 -33 -27 -33 -92 0
-151 -22 -201 -83 -186 -22 6 -26 14 -33 58 l-7 52 -20 -45 c-56 -123 8 -315
128 -385 107 -63 227 -8 301 138 54 106 94 253 94 345 -1 116 -30 262 -53 262
-7 0 -47 -15 -89 -34z"/>
<path d="M3900 1768 c-53 -73 -130 -238 -137 -295 -11 -94 16 -106 62 -27 23
39 101 259 119 337 9 39 -8 33 -44 -15z"/>
</g>
</svg>
