<?xml version="1.0" standalone="no"?>
<!DOCTYPE svg PUBLIC "-//W3C//DTD SVG 20010904//EN"
 "http://www.w3.org/TR/2001/REC-SVG-20010904/DTD/svg10.dtd">
<svg version="1.0" xmlns="http://www.w3.org/2000/svg"
 width="500.000000pt" height="500.000000pt" viewBox="0 0 500.000000 500.000000"
 preserveAspectRatio="xMidYMid meet">

<g transform="translate(0.000000,500.000000) scale(0.100000,-0.100000)"
fill="#000000" stroke="none">
<path d="M755 3350 c-76 -39 -182 -208 -266 -425 -74 -193 -80 -204 -89 -180
-4 11 -10 101 -13 200 -3 99 -8 188 -12 198 -9 22 -53 33 -68 18 -8 -8 -15
-152 -22 -490 l-10 -478 -32 -37 c-65 -73 -78 -111 -78 -221 0 -90 3 -106 29
-159 16 -33 50 -80 75 -107 57 -59 133 -85 222 -76 178 19 289 126 364 352 23
67 27 98 28 195 0 104 -3 124 -31 205 -17 49 -30 90 -29 91 7 4 172 42 174 40
2 -2 -3 -21 -11 -43 -41 -115 -39 -238 4 -322 48 -96 192 -151 271 -104 46 27
88 136 89 229 0 56 -23 130 -60 188 -47 73 -42 76 110 76 82 0 130 -4 130 -10
0 -6 -9 -45 -20 -88 -25 -97 -51 -248 -46 -264 3 -7 7 -26 11 -41 4 -20 16
-33 42 -43 58 -25 79 -9 158 117 39 61 74 110 79 110 6 -1 9 -41 7 -96 -3 -94
-2 -95 27 -125 37 -37 80 -40 116 -7 14 12 53 73 87 135 34 62 63 111 64 110
1 -2 -2 -57 -7 -123 -10 -133 3 -285 27 -322 19 -29 75 -44 119 -32 52 14 102
79 168 215 l59 122 27 -14 c15 -8 42 -14 61 -14 29 0 45 11 113 80 43 44 83
80 89 80 6 0 8 -13 4 -33 -3 -17 -9 -54 -14 -80 -20 -111 36 -196 130 -197 53
0 114 59 210 203 45 67 82 123 84 125 1 1 -2 -19 -6 -45 -21 -128 -7 -168 63
-180 28 -4 39 -1 57 18 24 26 98 151 206 347 37 67 71 122 76 122 12 0 15 12
-37 -156 -56 -184 -90 -328 -99 -415 -6 -61 -4 -69 18 -95 20 -23 33 -29 67
-29 36 0 47 6 79 40 20 22 74 105 120 185 46 80 85 146 86 148 1 1 19 -5 40
-14 58 -24 101 -3 223 112 57 53 105 94 108 91 4 -3 -6 -41 -20 -84 -14 -43
-41 -136 -61 -207 -39 -143 -41 -147 -140 -270 -162 -200 -254 -436 -200 -513
22 -31 73 -38 121 -18 108 45 162 151 254 506 26 103 52 195 57 203 13 24 217
265 221 261 2 -2 -1 -29 -7 -61 -6 -32 -11 -94 -11 -138 0 -101 19 -144 72
-164 107 -41 187 36 423 405 52 81 95 156 95 165 0 11 -8 18 -20 18 -14 0 -54
-52 -149 -193 -143 -214 -251 -340 -285 -335 -20 3 -21 8 -20 118 1 68 7 131
15 155 14 39 22 45 99 78 52 22 125 91 150 142 32 67 30 102 -10 138 -30 26
-38 29 -87 25 -66 -6 -82 -20 -238 -213 -62 -77 -131 -160 -153 -185 l-41 -45
-1 28 c0 16 20 98 45 181 53 181 55 203 19 212 -21 6 -34 -1 -75 -42 -43 -42
-52 -47 -67 -36 -70 51 -156 56 -223 13 -53 -33 -123 -132 -139 -194 -6 -23
-25 -69 -42 -102 -43 -83 -170 -276 -198 -300 l-23 -20 6 65 c3 36 36 181 72
322 73 289 79 339 40 364 -52 34 -84 0 -195 -206 -85 -157 -175 -300 -190
-300 -16 0 -12 38 20 200 34 172 35 183 16 199 -23 20 -44 1 -66 -57 -60 -162
-317 -524 -362 -510 -42 14 1 222 97 459 36 89 65 170 65 180 0 10 -9 23 -20
29 -25 13 -37 1 -109 -103 -30 -42 -59 -77 -65 -77 -6 0 -19 14 -28 31 -25 42
-96 73 -151 64 -89 -15 -206 -184 -229 -331 -16 -108 -106 -301 -180 -387 -36
-42 -44 -29 -53 87 -11 141 23 468 56 546 6 14 49 75 95 137 212 280 308 485
271 575 -27 64 -114 75 -176 22 -107 -90 -244 -428 -311 -766 -8 -39 -35 -98
-91 -195 -81 -137 -113 -182 -124 -171 -4 3 4 89 16 191 26 207 23 221 -35
215 -33 -3 -51 -30 -162 -239 -26 -48 -58 -99 -73 -115 -23 -25 -26 -26 -30
-9 -4 22 13 136 40 262 24 116 24 140 0 153 -30 16 -40 12 -60 -21 l-19 -32
-159 -2 c-156 -2 -213 -12 -213 -37 0 -7 15 -38 34 -68 66 -106 74 -231 21
-328 -34 -63 -64 -81 -98 -59 -43 28 -67 94 -67 181 0 150 49 295 134 400 37
45 45 60 35 67 -53 34 -141 -28 -203 -142 -17 -32 -24 -36 -128 -62 l-110 -27
-39 43 c-23 27 -61 54 -98 71 -33 15 -62 30 -65 34 -3 5 12 28 33 53 161 188
310 533 272 631 -21 56 -88 78 -146 48z m60 -87 c-19 -129 -148 -384 -294
-581 -90 -122 -100 -113 -47 44 95 281 204 490 292 563 21 16 42 27 47 24 5
-3 6 -25 2 -50z m1701 -28 c17 -43 -62 -226 -164 -381 -93 -142 -108 -141 -63
5 50 160 175 391 212 391 5 0 12 -7 15 -15z m2164 -645 c0 -39 -21 -80 -67
-131 -32 -35 -80 -69 -98 -69 -13 0 -2 33 31 97 60 116 134 173 134 103z
m-1960 -37 c8 -16 23 -36 34 -45 20 -16 20 -17 -6 -53 -92 -129 -223 -253
-245 -232 -14 14 17 121 61 212 64 132 126 178 156 118z m-2082 -1 c28 -16 85
-103 75 -112 -5 -4 -35 -17 -68 -30 -33 -13 -100 -44 -150 -69 -49 -25 -94
-47 -98 -49 -14 -7 11 237 28 268 7 12 191 4 213 -8z m3414 1 c31 -37 29 -51
-20 -101 -63 -65 -152 -133 -163 -126 -14 9 -11 25 20 91 30 63 109 153 134
153 8 0 21 -8 29 -17z m-3303 -187 c6 -25 16 -89 22 -143 9 -86 8 -110 -10
-193 -53 -258 -159 -400 -296 -400 -167 0 -298 257 -215 425 l24 50 6 -60 c5
-58 6 -60 36 -63 53 -5 66 21 72 149 l5 111 71 46 c73 47 228 121 257 121 11
1 20 -13 28 -43z m3171 -693 c-69 -237 -173 -377 -156 -209 7 70 79 228 143
311 33 43 38 47 41 28 2 -11 -11 -70 -28 -130z"/>
</g>
</svg>
